/* XPM */
static char *_be96a9b1be44ef6a8fac6eb75965d0eauGyHMjxEw6cPoTw[] = {
/* columns rows colors chars-per-pixel */
"32 32 7 1 ",
"  c gray62",
". c #04193F",
"X c #F489F6",
"o c #780BF7",
"O c #D840FB",
"+ c #FCFEFE",
"@ c white",
/* pixels */
"                                ",
"                                ",
"                                ",
"                                ",
"         ...   ...              ",
"        .XXX...ooo..            ",
"        .XXXXX.ooooo.           ",
"        .XXXXOOOOooo.           ",
"         .OXXXXXOOOoo.          ",
"        .OXXXXXXXOOOo.          ",
"        .XXXXX++++++oo.         ",
"       .OXXXX++++++++o.         ",
"       .XXXX++...+++..o.        ",
"       .XXXX+..++.+..+..        ",
"       .XXXX+..++.+..+..        ",
"       .XXXX+..++.+..+..        ",
"       .OXXXX+...+++..o.        ",
"        .XXXX++++++++o.         ",
"        .OXXXXO++++++o.         ",
"         .XXXXXOOOooo.          ",
"         .XXXXXX+++o.           ",
"         .XXXoX++++o.           ",
"        .XXXXoX+++++o.          ",
"        .XXXoO++++++o.          ",
"       .XXXXoO++++++oo.         ",
"       .XXXoOX++++++oo.         ",
"       .XXXoOX++++++oo.         ",
"        .ooOXXX++++o..          ",
"         .OOXXXOOOoo.           ",
"         .XXXX..ooo.            ",
"         .XXX. .ooo.            ",
"         .XXX. .ooo.            "
};
