/* XPM */
static char *_ee9b91d35ba4ee3ad86e710df943daczPrqjR2WJn0DxAwe[] = {
/* columns rows colors chars-per-pixel */
"32 32 2 1 ",
"  c #513131",
". c #824A4A",
/* pixels */
"................ ...............",
"................ ...............",
"................ ...............",
"................ ...............",
"................ ...............",
"................ ...............",
"................ ...............",
"................ ...............",
"................ ...............",
"................ ...............",
"................ ...............",
"................ ...............",
"................ ...............",
"................ ...............",
"................ ...............",
"                                ",
" ...............................",
" ...............................",
" ...............................",
" ...............................",
" ...............................",
" ...............................",
" ...............................",
" ...............................",
" ...............................",
" ...............................",
" ...............................",
" ...............................",
" ...............................",
" ...............................",
" ...............................",
"                                "
};
