/* XPM */
static char *c585c7d9dc33494afa8d4b330378c1af7IWJultugnKbZPqu[] = {
/* columns rows colors chars-per-pixel */
"32 32 13 1 ",
"  c gray62",
". c gray74",
"X c gray46",
"o c gray38",
"O c #554D4C",
"+ c #5A6988",
"@ c #C0CBDC",
"# c #3F2832",
"$ c #E43B44",
"% c #8B9BB4",
"& c #181425",
"* c #262B44",
"= c white",
/* pixels */
"                                ",
"                                ",
"                                ",
"                                ",
"                                ",
"                                ",
"                                ",
"                                ",
"                                ",
"                                ",
"                    +@          ",
"                   +++@         ",
"            #####$ +++@         ",
"           ######$$+++@         ",
"          #######$$+++@         ",
"          ##++++#$$+++@         ",
"          #+++++%$$@++@         ",
"           +++++%%%@++@         ",
"           +++++%%%@%+@         ",
"           ++++&&%%&+%@         ",
"           ++++&&&&&%+@         ",
"           ++++%%&&@%%@         ",
"        ######%%%&&@+%@         ",
"        ##++##%%%&&@++@         ",
"        #++++#%+++++++@         ",
"        #++++#%%%%%@&&&*        ",
"        ##++##%++++++%&*        ",
"        ##++##%%%%%@+%.         ",
"        X####%+%%%%@&*.         ",
"        oO##%++ ++              ",
"                ++              ",
"                ++%             "
};
