/* XPM */
static char *_b148cbc0ac34bc7c4b164a209608239jEocsPcnnJwtjVcf[] = {
/* columns rows colors chars-per-pixel */
"32 32 13 1 ",
"  c gray62",
". c gray74",
"X c gray46",
"o c gray38",
"O c gray62",
"+ c #5A6988",
"@ c #C0CBDC",
"# c #3F2832",
"$ c #E43B44",
"% c #8B9BB4",
"& c #181425",
"* c #262B44",
"= c white",
/* pixels */
"                                ",
"                                ",
"                                ",
"                                ",
"                                ",
"                                ",
"                                ",
"                                ",
"                  +@            ",
"                 +++@           ",
"            #####$++@           ",
"           ######$$+@           ",
"          #######$$+@           ",
"          ##++++#$$+@           ",
"          #+++++%$$@@           ",
"           +++++%%%@@           ",
"           +++++%%%@@           ",
"           ++++&&%%&@           ",
"           ++++&&&&&@           ",
"           ++++%%&&@@           ",
"          ######%&&@@           ",
"          ##++##%&&@@           ",
"          #++++#%+++@           ",
"          #++++#%%%@&*          ",
"          ##++##%+++&*          ",
"          ##++##%%%@.           ",
"          X####%%%%@.           ",
"          o+##%O.+++            ",
"           +      ++            ",
"                  ++            ",
"                   +%           ",
"                                "
};
