/* XPM */
static char *_56e026a7b864d0b84b34235be2c9394Bv2L8Cg1ZFNB8nCc[] = {
/* columns rows colors chars-per-pixel */
"32 32 14 1 ",
"  c gray62",
". c gray38",
"X c gray74",
"o c gray46",
"O c #554D4C",
"+ c gray62",
"@ c #5A6988",
"# c #C0CBDC",
"$ c #3F2832",
"% c #E43B44",
"& c #8B9BB4",
"* c #181425",
"= c #262B44",
"- c white",
/* pixels */
"                                ",
"                                ",
"                                ",
"                                ",
"                                ",
"                                ",
"                                ",
"                                ",
"                                ",
"                     @#         ",
"                    @@@#        ",
"            $$$$$%  @@@#        ",
"           $$$$$$%% @@@#        ",
"          $$$$$$$%% @@@#        ",
"          $$@@@@$%% @@@#        ",
"          $@@@@@&%%#@@@#        ",
"           @@@@@&&&#&@@#        ",
"           @@@@@&&&#@&@#        ",
"           @@@@**&&*&@&#        ",
"           @@@@*****&&@#        ",
"           @@@@&&**#@&&#        ",
"       $$$$$$&@&&**#@@&#        ",
"       $$@@$$&@&&**#@@@#        ",
"       $@@@@$&@@@@@@@@@#        ",
"       $@@@@$&@&&&&#****=       ",
"       $$@@$$&@@@@@@=@&*=       ",
"       $$@@$$&@&&&&#.@&X        ",
"       o$$$$&@@&&&&#.*=X        ",
"       .O$$&+@@ @@              ",
"             @@ @               ",
"             @@                 ",
"             @@&                "
};
