/* XPM */
static char *_85aa9fcc4964b69bf7b30aa6e88b246pu3yheBH1nnmX3Ri[] = {
/* columns rows colors chars-per-pixel */
"32 32 14 1 ",
"  c gray62",
". c gray38",
"X c gray74",
"o c gray46",
"O c #554D4C",
"+ c gray62",
"@ c #5A6988",
"# c #C0CBDC",
"$ c #3F2832",
"% c #E43B44",
"& c #8B9BB4",
"* c #181425",
"= c #262B44",
"- c white",
/* pixels */
"                                ",
"                                ",
"                                ",
"                                ",
"                                ",
"                                ",
"                                ",
"                                ",
"                      @#        ",
"                     @@@#       ",
"            $$$$$%   @@@#       ",
"           $$$$$$%%  @@@#       ",
"          $$$$$$$%%  @@@#       ",
"          $$@@@@$%%  @@@#       ",
"          $@@@@@&%%# @@@#       ",
"           @@@@@&&&# &@@#       ",
"           @@@@@&&&# @&@#       ",
"           @@@@**&&* &@&#       ",
"           @@@@***** &&@#       ",
"           @@@@&&**# @&&#       ",
"      $$$$$$&@@&&**# @@&#       ",
"      $$@@$$&@@&&**# @@@#       ",
"      $@@@@$&@@@@@@@ @@@#       ",
"      $@@@@$&@@&&&&#*****=      ",
"      $$@@$$&@@@@@@@*=@&*=      ",
"      $$@@$$&@@&&&&# .@&X       ",
"      o$$$$&@@@&&&&# .*=X       ",
"      .O$$&+X@@@@@              ",
"              @@@               ",
"              @@&               ",
"                                ",
"                                "
};
