/* XPM */
static char *f71584a0d3ef49678cb181a6be802bf5lfKHG3iLCDmLPQqu[] = {
/* columns rows colors chars-per-pixel */
"32 32 14 1 ",
"  c gray62",
". c gray74",
"X c gray46",
"o c gray38",
"O c #554D4C",
"+ c gray62",
"@ c #5A6988",
"# c #C0CBDC",
"$ c #3F2832",
"% c #E43B44",
"& c #8B9BB4",
"* c #181425",
"= c #262B44",
"- c white",
/* pixels */
"                                ",
"                                ",
"                                ",
"                                ",
"                                ",
"                                ",
"                                ",
"                                ",
"                                ",
"                   @#           ",
"                  @@@#          ",
"            $$$$$%@@@#          ",
"           $$$$$$%%@@#          ",
"          $$$$$$$%%@@#          ",
"          $$@@@@$%%@@#          ",
"          $@@@@@&%%#@#          ",
"           @@@@@&&&#@#          ",
"           @@@@@&&&#@#          ",
"           @@@@**&&*&#          ",
"           @@@@*****@#          ",
"           @@@@&&**#&#          ",
"         $$$$$$&&**#&#          ",
"         $$@@$$&&**#@#          ",
"         $@@@@$&@@@@@#          ",
"         $@@@@$&&&&#**=         ",
"         $$@@$$&@@@@&*=         ",
"         $$@@$$&&&&#&.          ",
"         X$$$$&&&&&#=.          ",
"         oO$$&+.  @@&           ",
"           @@                   ",
"           @                    ",
"                                "
};
