/* XPM */
static char *_fa52c71f2cb4c1e8290d672b9d3593bnFEqP3CFtSJIcHpw[] = {
/* columns rows colors chars-per-pixel */
"32 32 6 1 ",
"  c gray62",
". c black",
"X c #464646",
"o c #black",
"O c #black",
"+ c #B4B4B4",
/* pixels */
"            XXXXXXX             ",
"        XXXXXX+X++XXXXXX        ",
"    XXXXX++++++X++++++XXX       ",
"   XX+++X+++.......++XX+XXX     ",
"  XX++++X+..oOo.ooo..X++++XX    ",
"  XXXX++..oooOo.ooooO..++++XX   ",
" XX++X+.oooooOo.oooOOoo.+XX+XX  ",
" X++++.ooooooOo.oooOoooo.X+++X  ",
" X+++.oooooooOo.oooOooooo.+++XX ",
"XX+++.ooooOooOo.oooOooooo.++++X ",
"XX++.oOooOOooOo.oooOoooooo.+++XX",
"X+XX.oOooOoooOo.oooOooOooo.XXXXX",
"X++.ooOooOoooOo.oooOooOoooo.+++X",
"X++.ooOooOoooOo.oooOooOoooo.+++X",
"X++.ooOooOOooOo.oooOoooOooo.+++X",
"X++.ooOoooOooOo.oooOoooOooo.+++X",
"X++.ooOoooOooOo.oooOoooOOoo.+++X",
"X++.ooOoooOooOo.oooOooooOoo.+XXX",
"XXX.ooOoooOooOo.oooOooooOoo.XX+X",
"X++.ooOoooOoooO.oooOooooOoo.+++X",
"X++.ooOoooOoooO.oooOooooOoo.+++X",
"X++.ooOoooOo..O.o..OooooOoo.+++X",
"X++.ooOoooOoooo.oooOooooOoo.+++X",
"XXX.ooOoooOoooO.oooOoooOOoo.XXXX",
"XX+.ooOoooOoooO.oooOoooOooo.+++X",
"X++.ooOoooOoooO.oooOoooOooo.+++X",
"X++.ooOoooOooOO.oooOoooOooo.+++X",
"X++.ooOoooOooOo.oooOoooOooo.X++X",
"X++.ooOoooOooOo.ooOOoooOooo.XXXX",
"XX+.oOOoooOoOOo.ooOooooOooo.++XX",
"XXX.oOOoooOoOoo.ooOooooOooo.+++X",
"X++.ooooooooOoo.ooooooooooo.+++X"
};
