/* XPM */
static char *_a043704cb3946f3a021d3b9e8877e64z6V2PTgOwCT7AzM4[] = {
/* columns rows colors chars-per-pixel */
"32 32 2 1 ",
"  c #513131",
". c #824A4A",
/* pixels */
"................ ...............",
"...............  ...............",
"...............  ...............",
"................ ...............",
"................  ..............",
"................  ..............",
"................  ..............",
"................  ..............",
"................  ..............",
"................  ..............",
".   ............  ..............",
"....            . ........      ",
"...............           ......",
"................................",
"................................",
"................................",
"................................",
"................................",
"................................",
"................................",
"................................",
"................................",
"           .....................",
"...........                     ",
"................ ...............",
"................ ...............",
"................ ...............",
"................ ...............",
"................ ...............",
"................ ...............",
"................ ...............",
"................ ..............."
};
