/* XPM */
static char *_6f028800fa142a490530910ad056a18UBVuIzwgcHZ7Fx1x[] = {
/* columns rows colors chars-per-pixel */
"32 32 3 1 ",
"  c gray62",
". c #AD8002",
"X c #FFC20E",
/* pixels */
"                                ",
"                                ",
"                                ",
"             XXXXXXX            ",
"           XXXXXXXXXXX          ",
"         XXXX.......XXXX        ",
"        XXX..XXXXXXX..XXX       ",
"       XXX.XXX.....XXX.XXX      ",
"      XXX.XX..XXXXX..XX.XXX     ",
"      XX.XX.XXXXXXXXX.XX.XX     ",
"     XX.XX.XXXXXXXXXXX.XX.XX    ",
"     XX.X.XXXXXXXXXXXXX.X.XX    ",
"    XX.XX.XXXXXXXXXXXXX.XX.XX   ",
"    XX.X.XXXXXXXXXXXXXXX.X.XX   ",
"    XX.X.XXXXXXXXXXXXXXX.X.XX   ",
"    XX.X.XXXXXXXXXXXXXXX.X.XX   ",
"    XX.X.XXXXXXXXXXXXXXX.X.XX   ",
"    XX.X.XXXXXXXXXXXXXXX.X.XX   ",
"    XX.XX.XXXXXXXXXXXXX.XX.XX   ",
"     XX.X.XXXXXXXXXXXXX.X.XX    ",
"     XX.XX.XXXXXXXXXXX.XX.XX    ",
"      XX.XX.XXXXXXXXX.XX.XX     ",
"      XXX.XX..XXXXX..XX.XXX     ",
"       XXX.XXX.....XXX.XXX      ",
"        XXX..XXXXXXX..XXX       ",
"         XXXX.......XXXX        ",
"           XXXXXXXXXXX          ",
"             XXXXXXX            ",
"                                ",
"                                ",
"                                ",
"                                "
};
